<?xml version="1.0" standalone="no"?>
<!DOCTYPE svg PUBLIC "-//W3C//DTD SVG 20010904//EN"
 "http://www.w3.org/TR/2001/REC-SVG-20010904/DTD/svg10.dtd">
<svg version="1.0" xmlns="http://www.w3.org/2000/svg"
 width="640.000000pt" height="640.000000pt" viewBox="0 0 640.000000 640.000000"
 preserveAspectRatio="xMidYMid meet">

<g transform="translate(0.000000,640.000000) scale(0.100000,-0.100000)"
fill="#000000" stroke="none">
<path d="M0 3200 l0 -3200 3200 0 3200 0 0 3200 0 3200 -3200 0 -3200 0 0
-3200z m6390 0 l0 -3190 -3184 0 c-2649 0 -3185 2 -3189 13 -3 8 -6 1443 -6
3190 l-2 3177 3191 0 3190 0 0 -3190z"/>
<path d="M3319 5475 c-150 -41 -263 -159 -299 -313 -33 -141 7 -279 117 -406
68 -77 73 -94 73 -264 0 -103 7 -125 49 -147 16 -8 39 -30 51 -49 12 -21 35
-40 56 -48 l34 -12 0 -342 0 -342 -37 -19 c-109 -53 -110 -198 -3 -253 l40
-20 0 -205 0 -205 -44 0 c-142 0 -172 -223 -35 -260 124 -34 212 68 160 186
-19 43 -21 65 -21 268 l0 221 30 17 c16 9 39 32 50 50 40 65 16 159 -50 196
l-30 17 0 346 0 346 40 16 c24 9 47 28 57 46 10 16 28 34 40 40 43 20 50 48
56 203 l5 148 56 62 c31 34 71 91 89 127 60 123 47 295 -33 421 -93 145 -287
221 -451 175z m223 -75 c65 -24 142 -89 168 -141 24 -47 24 -44 -1 -46 -17 -2
-18 1 -8 13 6 8 9 17 5 21 -3 3 -6 1 -6 -6 0 -7 -5 -9 -12 -5 -8 5 -9 -6 -5
-41 4 -26 7 -84 7 -129 0 -56 3 -76 10 -66 7 11 10 7 11 -20 l1 -35 8 30 c4
17 8 24 9 18 2 -19 19 -16 24 5 3 11 5 7 6 -10 2 -58 -84 -198 -112 -181 -6 3
-7 2 -4 -4 3 -5 -4 -20 -16 -34 -32 -34 -47 -74 -47 -119 0 -39 -1 -40 -35
-40 l-35 0 0 59 c0 33 -4 62 -9 66 -6 3 -9 -22 -8 -62 l2 -68 -110 3 c-60 2
-111 5 -113 7 -2 2 -5 18 -8 37 -9 67 -16 80 -69 138 -30 32 -67 83 -82 112
-26 49 -28 62 -28 163 0 101 2 115 28 165 46 90 120 154 207 181 51 15 167 10
222 -11z m46 -872 c-3 -23 -5 -23 -158 -23 -138 0 -155 2 -158 17 -3 16 11 18
140 21 79 1 151 4 161 5 14 1 18 -4 15 -20z m-40 -88 c31 0 42 -4 42 -15 0 -8
-3 -15 -7 -15 -244 -5 -305 -4 -310 3 -2 4 -2 15 1 24 6 14 21 15 119 10 61
-4 131 -7 155 -7z m-50 -92 c-9 -27 -54 -42 -94 -33 -56 15 -55 33 3 38 26 2
59 4 71 5 15 1 22 -3 20 -10z m-49 -868 c21 0 51 -44 51 -75 0 -61 -63 -95
-120 -65 -28 15 -43 67 -27 98 13 29 55 55 75 47 8 -3 17 -5 21 -5z m-38 -719
c34 -35 37 -59 9 -89 -52 -55 -129 -23 -130 54 0 6 9 23 21 38 27 35 63 34
100 -3z"/>
<path d="M3615 4848 c-10 -25 -3 -49 11 -34 6 6 8 20 3 31 -6 18 -8 18 -14 3z"/>
<path d="M3590 4778 c0 -14 18 -17 28 -5 8 10 6 13 -9 13 -10 0 -19 -4 -19 -8z"/>
<path d="M1967 5406 c-196 -81 -285 -295 -207 -499 15 -40 42 -80 91 -132 l69
-75 2 -72 c1 -40 0 -94 -1 -119 -2 -28 4 -59 14 -78 19 -38 69 -71 107 -71 16
0 31 -7 35 -17 12 -26 4 -693 -9 -693 -20 0 -64 -43 -85 -83 l-22 -42 -1 300
c-1 321 -6 378 -31 383 -24 5 -29 -55 -29 -378 0 -390 13 -445 118 -520 103
-74 276 -106 323 -59 28 28 14 41 -53 46 -81 7 -83 9 -50 43 17 16 38 50 48
75 34 91 -19 206 -107 231 l-34 10 -3 319 c-1 176 0 334 3 350 4 27 12 33 50
43 63 17 107 78 104 142 -1 25 -2 75 -1 113 l2 68 61 65 c35 38 74 93 92 132
29 61 32 75 32 167 0 89 -3 107 -29 163 -37 80 -123 162 -201 191 -81 30 -210
29 -288 -3z m257 -56 c103 -39 185 -139 202 -247 9 -59 -12 -161 -47 -221 -16
-28 -53 -72 -84 -98 -50 -43 -55 -52 -55 -88 0 -23 -4 -46 -8 -53 -5 -8 -47
-12 -127 -14 l-120 -2 -5 59 c-5 57 -7 61 -63 113 -36 34 -69 77 -88 117 -29
59 -31 68 -27 158 3 92 4 96 44 153 42 60 113 116 168 132 56 17 152 12 210
-9z m21 -800 c0 -12 -23 -15 -132 -18 -107 -2 -133 0 -133 11 0 25 13 28 139
25 104 -3 126 -6 126 -18z m-17 -87 c-3 -16 -17 -18 -118 -18 -101 0 -115 2
-118 18 -3 15 8 17 118 17 110 0 121 -2 118 -17z m-32 -909 c59 -62 39 -146
-42 -180 -80 -33 -134 1 -134 84 0 83 39 132 103 132 32 0 46 -6 73 -36z"/>
<path d="M1953 5233 c-5 -16 -8 -103 -8 -195 0 -214 -10 -202 166 -206 180 -5
169 -18 169 212 -1 135 -4 185 -14 199 -12 15 -32 17 -159 17 l-147 0 -7 -27z
m285 -185 l-3 -173 -74 -8 c-49 -5 -77 -5 -84 2 -6 6 -22 11 -35 11 -13 0 -32
5 -43 10 -17 10 -19 23 -19 164 0 84 3 156 7 159 3 4 62 7 130 7 l123 0 -2
-172z"/>
<path d="M2079 5203 c-6 -55 -7 -53 27 -53 18 0 36 5 39 10 3 6 2 10 -3 10 -6
0 -8 9 -5 20 5 17 0 20 -26 20 -17 0 -31 -3 -32 -7z"/>
<path d="M2082 4903 c4 -22 34 -29 54 -12 18 15 2 29 -34 29 -17 0 -23 -5 -20
-17z"/>
<path d="M2095 4711 l-70 -6 63 -13 c59 -12 66 -12 95 7 36 24 44 23 -88 12z"/>
<path d="M4336 5230 c-53 -16 -106 -61 -128 -110 -21 -46 -24 -48 -72 -54
-106 -12 -177 -136 -131 -227 9 -16 27 -34 41 -39 15 -6 198 -10 433 -10 454
0 428 -4 438 70 15 107 -85 214 -206 221 -35 3 -45 8 -61 33 -49 81 -131 126
-225 125 -33 0 -73 -5 -89 -9z m191 -83 c38 -20 79 -71 88 -109 7 -27 9 -28
59 -22 42 5 61 2 93 -15 48 -24 83 -75 83 -120 l0 -31 -288 0 c-159 0 -337 3
-395 7 l-107 6 0 29 c0 70 45 108 130 108 47 0 49 1 55 33 12 52 32 84 71 108
65 40 142 42 211 6z"/>
<path d="M1437 4924 c-11 -12 -8 -41 6 -53 19 -15 50 9 45 35 -3 19 -38 31
-51 18z"/>
<path d="M1307 4913 c-10 -9 -8 -41 2 -47 18 -11 41 6 41 30 0 17 -6 24 -18
24 -10 0 -22 -3 -25 -7z"/>
<path d="M1570 4890 c0 -15 5 -20 18 -18 9 2 17 10 17 18 0 8 -8 16 -17 18
-13 2 -18 -3 -18 -18z"/>
<path d="M1440 4785 c-16 -19 -9 -49 14 -53 35 -7 49 40 17 57 -14 8 -22 7
-31 -4z"/>
<path d="M1164 4776 c-9 -24 4 -48 23 -44 12 2 18 12 18 28 0 29 -32 41 -41
16z"/>
<path d="M1294 4775 c-9 -23 3 -45 25 -45 25 0 34 14 26 40 -7 23 -43 27 -51
5z"/>
<path d="M1564 4775 c-9 -23 4 -47 23 -43 11 2 19 14 21 31 3 22 -1 27 -18 27
-11 0 -23 -7 -26 -15z"/>
<path d="M1684 4776 c-8 -21 3 -36 27 -36 15 0 20 6 17 22 -4 27 -35 37 -44
14z"/>
<path d="M2780 4722 c-104 -52 -106 -206 -2 -251 l32 -15 0 -96 c0 -53 -3
-100 -6 -103 -4 -4 -25 9 -46 29 -176 159 -472 69 -548 -165 -63 -196 41 -382
251 -450 l36 -11 1 -410 c1 -234 6 -420 12 -435 11 -28 35 -33 44 -9 3 9 6
193 6 409 0 385 4 445 32 445 32 0 144 64 195 112 79 74 103 130 103 238 0 47
-5 101 -10 120 -15 54 -20 307 -6 323 6 7 24 21 39 31 35 22 61 79 54 122 -7
42 -52 108 -83 123 -35 16 -63 14 -104 -7z m109 -78 c43 -54 12 -124 -54 -124
-38 0 -75 37 -75 75 0 38 37 75 75 75 24 0 39 -7 54 -26z m-221 -374 c224
-112 220 -406 -6 -517 -127 -62 -273 -20 -358 104 -91 133 -64 284 70 384 60
45 94 57 172 58 49 1 73 -5 122 -29z"/>
<path d="M2522 4198 c-30 -30 1 -73 36 -51 23 14 25 29 7 47 -20 19 -27 20
-43 4z"/>
<path d="M2389 4154 c-12 -14 -10 -19 9 -35 30 -24 54 -14 50 20 -4 31 -38 40
-59 15z"/>
<path d="M2647 4164 c-12 -12 -8 -41 8 -54 20 -17 47 5 43 34 -3 21 -37 34
-51 20z"/>
<path d="M2504 4039 c-17 -19 -17 -23 -3 -47 21 -39 74 -43 90 -8 10 20 9 30
-5 51 -20 31 -56 33 -82 4z"/>
<path d="M2352 4028 c-17 -17 -15 -26 7 -38 27 -14 53 -2 49 24 -3 24 -37 33
-56 14z"/>
<path d="M2686 4024 c-9 -22 17 -49 39 -40 10 3 15 15 13 28 -4 29 -42 37 -52
12z"/>
<path d="M2394 3896 c-10 -26 4 -48 28 -44 17 2 23 10 23 28 0 18 -6 26 -23
28 -13 2 -25 -3 -28 -12z"/>
<path d="M2644 3895 c-10 -25 4 -47 28 -43 17 2 24 11 26 31 3 23 0 27 -23 27
-14 0 -28 -7 -31 -15z"/>
<path d="M2528 3889 c-24 -14 -22 -36 4 -50 18 -9 24 -8 34 6 9 13 10 23 3 36
-11 21 -17 23 -41 8z"/>
<path d="M2942 4719 c10 -5 30 -31 45 -57 l28 -47 -2 -444 c-2 -347 -5 -446
-15 -453 -7 -4 -45 -8 -84 -8 -87 0 -156 -31 -212 -95 -85 -97 -82 -201 9
-278 74 -64 170 -72 264 -21 l45 23 0 -317 c0 -261 3 -328 16 -371 29 -99 140
-188 263 -211 149 -28 316 68 358 207 30 99 16 503 -18 503 -18 0 -23 -49 -29
-255 -5 -198 -8 -224 -27 -260 -42 -80 -122 -128 -224 -133 -108 -6 -195 44
-247 142 l-27 51 -7 330 c-4 182 -7 341 -7 355 8 324 7 1175 0 1216 -15 80
-65 134 -123 134 -20 -1 -21 -2 -6 -11z m-2 -1094 c85 -44 86 -201 1 -245 -68
-34 -105 -35 -157 -5 -81 47 -93 121 -32 191 59 67 130 89 188 59z"/>
<path d="M2434 4681 c-33 -20 -54 -64 -54 -113 0 -21 11 -41 33 -63 59 -59
118 -58 174 1 71 75 21 194 -82 194 -22 0 -54 -9 -71 -19z m94 -47 c25 -17 31
-71 10 -92 -30 -30 -98 -1 -98 41 0 22 37 67 55 67 6 0 21 -7 33 -16z"/>
<path d="M4520 4625 l0 -65 40 0 c47 0 53 15 10 24 -29 5 -30 8 -30 56 0 27
-4 50 -10 50 -6 0 -10 -28 -10 -65z"/>
<path d="M4725 4680 c-41 -64 -67 -157 -31 -107 17 22 44 22 68 0 31 -28 32
-7 1 59 -22 48 -31 59 -38 48z m15 -55 c0 -8 -4 -15 -10 -15 -5 0 -10 7 -10
15 0 8 5 15 10 15 6 0 10 -7 10 -15z"/>
<path d="M4864 4676 c-3 -7 -4 -35 -2 -62 3 -48 3 -49 39 -52 50 -4 69 17 62
66 -7 47 -12 52 -57 58 -25 3 -38 0 -42 -10z m66 -26 c0 -5 -9 -10 -20 -10
-11 0 -20 5 -20 10 0 6 9 10 20 10 11 0 20 -4 20 -10z m8 -47 c5 -18 -28 -29
-38 -12 -5 7 -6 17 -3 22 7 12 35 5 41 -10z"/>
<path d="M5052 4678 c-21 -21 -13 -47 18 -63 37 -19 40 -40 4 -31 -19 5 -25 3
-22 -6 6 -18 46 -22 64 -7 22 18 13 52 -15 59 -35 8 -39 30 -6 30 17 0 25 5
23 13 -6 17 -50 21 -66 5z"/>
<path d="M1170 4645 c-16 -19 -5 -47 17 -43 22 4 29 43 9 51 -8 3 -20 -1 -26
-8z"/>
<path d="M1302 4651 c-20 -12 -10 -46 15 -49 14 -2 23 3 28 17 11 35 -12 52
-43 32z"/>
<path d="M1432 4648 c-16 -16 -15 -23 4 -42 21 -22 56 -3 52 27 -3 25 -37 34
-56 15z"/>
<path d="M1564 4646 c-10 -26 4 -48 28 -44 17 2 23 10 23 28 0 18 -6 26 -23
28 -13 2 -25 -3 -28 -12z"/>
<path d="M4015 4599 c-166 -59 -264 -208 -253 -385 6 -97 47 -181 123 -253 54
-51 55 -54 56 -109 0 -31 3 -91 5 -132 4 -74 4 -75 49 -117 64 -59 130 -73
211 -47 42 14 66 29 87 56 29 36 31 44 34 140 1 57 5 114 8 127 4 13 35 55 70
93 70 75 100 139 111 232 18 148 -73 309 -211 377 -87 43 -201 50 -290 18z
m247 -67 c95 -42 172 -138 188 -235 18 -117 -21 -218 -120 -309 -36 -33 -68
-69 -72 -81 -4 -15 -6 -17 -7 -6 -1 15 -16 17 -113 16 l-113 -1 -77 75 c-86
83 -115 135 -124 226 -7 70 19 162 61 218 84 110 251 153 377 97z m-2 -678 c0
-19 -8 -22 -67 -27 -38 -4 -94 -7 -125 -7 -54 0 -58 2 -58 23 0 13 2 26 4 28
2 2 59 4 125 4 116 0 121 -1 121 -21z m0 -109 c0 -13 -21 -15 -130 -15 -119 0
-142 4 -123 23 3 4 62 7 130 7 103 0 123 -2 123 -15z m-10 -85 c-1 -25 -25
-35 -97 -38 -83 -4 -133 8 -133 32 0 11 22 14 115 12 63 0 115 -3 115 -6z"/>
<path d="M4081 4424 c-12 -15 -21 -31 -21 -35 0 -5 -20 -9 -45 -9 -55 0 -80
-29 -70 -82 5 -25 2 -38 -9 -47 -27 -23 -20 -79 14 -113 25 -24 37 -29 65 -26
30 3 36 1 44 -23 10 -29 56 -59 89 -59 27 0 69 35 76 63 5 20 10 22 44 19 33
-3 42 1 65 28 27 32 36 83 17 95 -7 4 -8 23 -5 49 5 33 2 47 -15 69 -18 22
-29 27 -66 27 -24 0 -44 4 -44 9 0 4 -11 20 -25 35 -33 36 -86 36 -114 0z
m100 -56 c34 -39 39 -41 63 -30 50 23 82 -18 50 -65 -16 -26 -16 -27 6 -45 20
-16 22 -23 14 -46 -8 -24 -16 -28 -61 -32 -29 -3 -53 -8 -55 -10 -2 -3 -12
-17 -21 -32 -24 -38 -51 -35 -77 7 -23 37 -25 38 -79 39 -27 1 -38 7 -50 29
-15 27 -15 29 8 48 21 17 23 23 13 40 -29 46 -3 85 48 74 35 -8 57 6 71 42 12
33 29 29 70 -19z"/>
<path d="M4720 4299 c-66 -26 -82 -115 -31 -171 26 -29 36 -33 79 -33 60 0 87
20 104 77 26 88 -63 162 -152 127z m84 -65 c23 -23 20 -50 -10 -73 -20 -16
-31 -18 -45 -11 -19 11 -39 41 -39 59 0 18 31 41 55 41 13 0 31 -7 39 -16z"/>
<path d="M1095 4134 c-22 -23 -15 -56 17 -73 24 -14 28 -14 47 3 26 24 26 41
1 66 -24 24 -43 25 -65 4z"/>
<path d="M1250 4090 c0 -18 6 -20 71 -20 62 0 70 2 67 18 -3 14 -16 18 -71 20
-62 3 -67 1 -67 -18z"/>
<path d="M1433 4095 c-3 -9 -3 -18 0 -21 4 -5 248 -8 320 -5 10 1 17 9 17 21
0 19 -7 20 -165 20 -140 0 -167 -2 -172 -15z"/>
<path d="M1088 3972 c-25 -5 -22 -39 4 -53 18 -9 24 -8 34 6 22 29 0 56 -38
47z"/>
<path d="M1217 3973 c-20 -3 -27 -10 -25 -21 3 -15 31 -17 291 -20 253 -2 288
0 293 13 4 9 5 17 3 19 -6 6 -532 14 -562 9z"/>
<path d="M3626 3949 c-8 -40 -8 -552 0 -573 8 -21 31 -20 38 2 9 33 19 450 11
526 -6 64 -10 76 -25 76 -12 0 -20 -10 -24 -31z"/>
<path d="M4532 3894 c-50 -35 -67 -117 -36 -175 23 -45 91 -73 143 -59 101 27
119 167 30 231 -33 23 -105 25 -137 3z m123 -68 c23 -34 15 -75 -17 -99 -23
-17 -31 -18 -57 -8 -51 22 -61 94 -17 123 25 17 75 8 91 -16z"/>
<path d="M1431 3836 c-17 -20 -2 -48 23 -44 24 3 34 37 14 49 -18 12 -24 11
-37 -5z"/>
<path d="M1317 3833 c-14 -13 -7 -32 14 -38 24 -8 41 9 32 32 -5 14 -35 18
-46 6z"/>
<path d="M1544 3826 c-17 -45 135 -214 194 -216 20 0 14 23 -23 80 -44 69 -45
90 -6 90 35 0 48 15 30 36 -8 10 -30 15 -68 14 -31 0 -71 2 -88 6 -25 5 -34 2
-39 -10z"/>
<path d="M3797 3744 c-4 -4 -4 -10 -1 -15 6 -10 34 0 34 12 0 10 -24 12 -33 3z"/>
<path d="M1214 3468 c-52 -25 -62 -103 -18 -143 44 -41 97 -26 129 35 19 37 3
85 -36 105 -32 17 -46 18 -75 3z m58 -45 c34 -31 17 -83 -27 -83 -28 0 -45 19
-45 50 0 47 37 65 72 33z"/>
<path d="M1668 3457 c-14 -13 -29 -33 -32 -44 -6 -19 -13 -19 -135 -15 -95 3
-130 1 -136 -8 -15 -24 21 -31 148 -27 70 2 127 0 127 -5 0 -21 51 -58 80 -58
40 0 90 47 90 85 0 33 -24 81 -45 89 -33 12 -73 5 -97 -17z m92 -38 c17 -31 4
-68 -27 -75 -30 -8 -53 15 -53 51 0 45 60 63 80 24z"/>
<path d="M3853 3422 c-71 -25 -114 -60 -148 -123 -54 -99 -29 -225 61 -313 71
-69 77 -71 299 -74 125 -3 219 0 251 7 109 25 186 120 187 234 1 83 -17 131
-72 190 -81 87 -96 91 -326 94 -173 3 -207 1 -252 -15z m466 -66 c43 -23 99
-91 107 -131 12 -66 0 -140 -30 -179 -48 -63 -61 -66 -295 -66 -124 0 -221 4
-238 11 -141 53 -157 289 -23 357 42 21 57 22 248 22 157 0 209 -3 231 -14z"/>
<path d="M1465 3240 c-195 -4 -230 -7 -230 -20 0 -13 35 -15 252 -16 199 -2
255 1 263 11 9 10 7 16 -9 24 -11 6 -26 10 -33 9 -7 -1 -116 -5 -243 -8z"/>
<path d="M2747 3162 c-30 -18 -67 -85 -67 -120 0 -48 45 -113 90 -127 19 -6
20 -14 20 -166 0 -99 -4 -168 -11 -181 -11 -20 -9 -21 19 -15 25 5 38 1 62
-20 39 -32 47 -25 21 18 -16 28 -20 62 -26 195 l-7 161 35 21 c89 52 91 177 4
231 -42 25 -102 27 -140 3z m122 -66 c30 -32 31 -84 1 -108 -34 -27 -84 -24
-109 8 -28 35 -26 69 4 99 31 32 74 33 104 1z"/>
<path d="M2031 3113 c-64 -50 -78 -126 -35 -189 31 -46 38 -51 87 -64 87 -25
177 40 177 126 0 56 -33 120 -72 140 -46 24 -118 18 -157 -13z m140 -62 c16
-16 29 -39 29 -51 0 -30 -53 -80 -85 -80 -32 0 -85 50 -85 80 0 30 53 80 85
80 16 0 38 -12 56 -29z"/>
<path d="M5054 3119 c-17 -19 -17 -23 -3 -47 18 -33 54 -40 80 -16 24 22 24
46 1 67 -25 23 -55 21 -78 -4z"/>
<path d="M4860 3095 c-11 -13 -11 -19 3 -32 23 -23 69 -10 65 20 -4 27 -49 35
-68 12z"/>
<path d="M4630 3080 c0 -20 5 -21 82 -18 70 3 83 6 86 21 3 15 -6 17 -82 17
-80 0 -86 -1 -86 -20z"/>
<path d="M4616 2953 c-3 -4 -6 -14 -6 -24 0 -15 21 -17 260 -18 l260 0 0 24 0
25 -254 -1 c-139 0 -256 -3 -260 -6z"/>
<path d="M4634 2826 c-18 -14 -18 -16 -2 -32 9 -9 24 -14 32 -11 23 9 32 37
15 48 -19 12 -22 11 -45 -5z"/>
<path d="M4754 2826 c-9 -24 4 -48 23 -44 12 2 18 12 18 28 0 29 -32 41 -41
16z"/>
<path d="M4854 2826 c-9 -24 4 -48 23 -44 12 2 18 12 18 28 0 29 -32 41 -41
16z"/>
<path d="M4956 2824 c-8 -20 11 -44 34 -44 20 0 32 23 24 45 -8 20 -50 19 -58
-1z"/>
<path d="M5080 2825 c-16 -19 -6 -45 19 -45 23 0 35 28 20 46 -15 18 -24 18
-39 -1z"/>
<path d="M2662 2731 c-11 -6 -10 -9 3 -15 30 -11 77 -7 73 7 -5 15 -58 21 -76
8z"/>
<path d="M3878 2701 c-29 -26 -33 -35 -32 -76 2 -84 77 -134 149 -99 60 28 81
94 50 154 -19 37 -43 50 -94 50 -31 0 -49 -7 -73 -29z m125 -33 c57 -67 -36
-148 -101 -88 -31 29 -29 73 5 100 32 25 69 20 96 -12z"/>
<path d="M1639 2221 c-49 -31 -73 -70 -84 -139 -6 -35 -10 -42 -23 -36 -10 4
-38 12 -63 17 -122 27 -232 -90 -199 -213 10 -39 64 -103 105 -126 18 -10 17
-13 -21 -32 -76 -39 -111 -134 -80 -215 39 -104 164 -156 248 -103 23 14 33 0
42 -55 4 -28 17 -47 52 -78 52 -46 105 -64 155 -55 81 16 123 59 139 145 6 29
12 55 15 57 3 3 23 -3 44 -13 50 -22 131 -16 169 12 56 42 87 128 70 191 -10
35 -70 103 -113 129 -19 10 -18 12 16 27 108 46 137 181 59 270 -58 66 -130
82 -209 46 -24 -11 -44 -20 -46 -20 -1 0 -5 27 -7 59 -7 102 -71 161 -176 161
-36 0 -60 -7 -93 -29z m149 -50 c63 -32 76 -83 41 -153 -13 -26 -17 -44 -11
-46 6 -2 29 -16 51 -33 23 -16 45 -29 51 -29 5 0 16 13 25 29 35 69 110 82
163 30 53 -51 55 -107 6 -156 -21 -21 -32 -24 -75 -21 l-50 3 3 -75 c3 -66 5
-75 21 -72 32 6 86 -19 113 -51 33 -40 29 -95 -12 -138 -54 -56 -118 -45 -167
30 -15 23 -31 41 -35 41 -4 -1 -27 -18 -52 -40 l-44 -39 17 -36 c27 -56 22
-92 -17 -131 -38 -38 -77 -44 -126 -19 -61 32 -78 100 -40 163 11 18 20 36 20
40 0 8 -109 67 -113 61 -1 -2 -11 -22 -22 -44 -28 -54 -81 -76 -131 -52 -40
20 -74 70 -74 111 0 20 12 40 40 68 36 37 43 40 85 36 l45 -3 0 57 c0 82 -4
88 -59 88 -39 0 -52 5 -73 28 -49 50 -45 108 8 157 50 47 97 32 159 -49 l27
-35 53 42 c29 23 54 47 54 52 0 6 -8 21 -19 35 -25 31 -26 91 -2 119 18 22 69
51 90 51 7 0 30 -9 50 -19z"/>
<path d="M1692 1835 c-47 -21 -79 -93 -63 -145 16 -53 51 -82 109 -88 46 -4
49 -2 85 37 29 32 37 49 37 79 -1 92 -87 153 -168 117z"/>
<path d="M3223 2002 l-183 -2 0 -45 0 -44 69 -7 c59 -5 70 -10 75 -28 3 -11 6
-110 6 -218 l0 -198 51 0 51 0 -4 220 -3 220 35 2 c19 1 51 2 70 2 l35 1 0 49
c0 27 -4 50 -10 50 -5 1 -92 0 -192 -2z"/>
<path d="M2390 1731 l0 -269 55 -4 55 -3 0 273 0 272 -55 0 -55 0 0 -269z"/>
<path d="M2632 1730 l-2 -270 117 0 c145 1 202 18 247 74 26 32 31 46 31 93 0
50 -3 57 -35 87 l-35 32 22 33 c30 44 31 111 3 156 -32 51 -80 65 -223 65
l-122 0 -3 -270z m248 150 c25 -25 25 -41 -1 -74 -18 -23 -27 -26 -85 -26
l-64 0 0 60 0 60 65 0 c52 0 69 -4 85 -20z m8 -206 c28 -19 29 -67 2 -94 -16
-16 -33 -20 -90 -20 l-70 0 0 58 c0 32 3 62 7 65 13 14 128 7 151 -9z"/>
<path d="M3510 1998 c-4 -61 -1 -519 4 -527 4 -6 25 -11 46 -11 43 0 42 -2 61
97 6 35 18 71 25 80 13 17 17 15 48 -20 31 -35 68 -99 80 -139 5 -15 18 -18
81 -18 41 0 75 3 75 6 0 3 -45 64 -100 134 -55 71 -100 134 -100 140 0 7 31
45 69 86 38 41 88 97 111 124 l42 50 -65 0 -65 0 -82 -87 c-45 -48 -89 -100
-98 -115 -9 -16 -20 -28 -24 -28 -4 0 -8 52 -8 115 l0 115 -50 0 c-27 0 -50
-1 -50 -2z"/>
<path d="M4191 1978 c-42 -110 -76 -188 -103 -241 -37 -74 -118 -258 -118
-270 0 -4 25 -7 56 -5 l56 3 23 55 23 55 114 3 113 2 25 -60 25 -60 58 0 c31
0 57 2 57 4 0 2 -18 43 -41 91 -22 48 -60 135 -85 194 -25 58 -59 134 -75 169
-16 35 -29 68 -29 73 0 5 -20 9 -45 9 -38 0 -47 -4 -54 -22z m92 -226 c15 -38
27 -71 27 -75 0 -4 -30 -7 -66 -7 -49 0 -65 3 -61 13 26 65 61 137 66 137 3 0
18 -31 34 -68z"/>
<path d="M4620 1730 l0 -270 50 0 49 0 3 88 3 87 50 3 50 2 38 -67 c64 -115
64 -115 135 -111 l62 3 -60 86 c-33 48 -60 91 -60 96 0 5 13 19 30 31 16 12
37 37 46 55 21 40 22 133 1 173 -39 75 -90 93 -264 94 l-133 0 0 -270z m255
155 c43 -17 59 -52 44 -95 -15 -42 -35 -50 -123 -50 l-76 0 0 80 0 80 60 0
c33 0 76 -7 95 -15z"/>
<path d="M5137 1554 c-10 -11 3 -24 24 -24 16 0 19 -7 19 -40 0 -43 16 -55 24
-17 3 12 7 31 9 42 4 16 5 15 6 -5 2 -38 17 -58 32 -43 9 9 16 9 25 2 9 -7 13
1 16 31 3 32 0 44 -14 51 -19 10 -131 12 -141 3z"/>
<path d="M2927 1314 c-4 -4 -7 -56 -7 -116 l0 -108 80 0 c73 0 80 2 80 19 0
17 -8 20 -52 23 l-53 3 -5 90 c-4 70 -8 90 -20 93 -9 1 -19 0 -23 -4z"/>
<path d="M3282 1308 c-15 -20 -84 -160 -92 -190 -7 -22 -4 -27 13 -32 26 -6
37 0 37 24 0 22 19 30 71 30 32 0 42 -5 50 -24 10 -21 54 -44 65 -33 6 6 -86
198 -104 220 -18 20 -26 21 -40 5z m48 -120 c0 -5 -14 -8 -30 -8 l-31 0 17 32
16 32 14 -25 c7 -13 13 -27 14 -31z"/>
<path d="M3902 1303 c-51 -43 -26 -114 43 -127 21 -4 35 -13 35 -22 0 -21 -28
-29 -61 -17 -21 8 -32 8 -45 -1 -15 -11 -15 -14 0 -29 43 -43 149 -25 162 27
11 45 1 60 -56 83 -70 28 -73 48 -5 48 37 0 50 4 53 16 7 35 -90 52 -126 22z"/>
<path d="M3560 1200 l0 -110 64 0 c49 0 69 5 90 21 29 23 34 60 11 79 -11 9
-13 16 -5 24 16 16 12 54 -10 76 -16 16 -33 20 -85 20 l-65 0 0 -110z m108 48
c3 -15 -4 -18 -32 -18 -30 0 -36 4 -36 21 0 17 5 20 32 17 22 -2 34 -9 36 -20z
m11 -81 c15 -19 4 -27 -36 -27 -26 0 -33 4 -33 20 0 15 7 20 29 20 16 0 34 -6
40 -13z"/>
<path d="M2443 1233 c-41 -4 -57 -23 -33 -38 14 -9 285 6 301 16 8 4 11 10 9
12 -7 7 -229 15 -277 10z"/>
<path d="M4628 1235 c-3 -3 -86 -7 -185 -8 -151 -2 -178 -4 -178 -17 0 -13 19
-15 115 -14 63 1 129 2 145 3 17 1 139 -2 273 -5 252 -6 292 -3 292 21 0 8 -1
15 -2 16 -19 5 -455 9 -460 4z"/>
</g>
</svg>
